<svg width="102" height="31" viewBox="0 0 102 31" fill="none" xmlns="http://www.w3.org/2000/svg">
<path d="M7.63607 30.6074C7.06045 30.6074 6.77204 30.3594 6.77204 29.861V29.7045C6.77204 29.3914 7.03532 28.9195 7.56068 28.291C8.11117 27.6373 8.38642 26.9823 8.38642 26.3286V5.68086H6.39627C5.82064 5.68086 5.29528 5.93008 4.81898 6.42731C4.37344 6.91675 4.00607 7.47276 3.72996 8.07552C3.47865 8.65101 3.1675 9.18797 2.79173 9.6852C2.41596 10.1824 2.04019 10.4316 1.66442 10.4316H1.02656C0.325282 10.4316 0.0117404 10.0512 0.087134 9.29271L0.838677 3.95319C0.912874 3.14294 1.33891 2.7372 2.11558 2.7372H21.4187C22.1691 2.7372 22.5951 3.14294 22.6945 3.95319L23.4843 9.33124C23.5334 9.67195 23.4711 9.94646 23.2952 10.1559C23.1205 10.3389 22.8704 10.4304 22.5449 10.4304H21.9058C21.5312 10.4304 21.1555 10.1824 20.7797 9.68399C20.4039 9.18556 20.0784 8.65101 19.8032 8.07552C19.5279 7.47354 19.1522 6.92454 18.6771 6.42611C18.2008 5.93008 17.6754 5.68086 17.0998 5.68086H15.1467V26.3286C15.1467 26.9823 15.41 27.6373 15.9354 28.291C16.4858 28.9195 16.7611 29.3902 16.7611 29.7045V29.861C16.7611 30.3594 16.4619 30.6074 15.86 30.6074H7.63607ZM39.4306 26.3286C39.506 26.9571 39.6437 27.4675 39.8435 27.86C40.0697 28.226 40.2815 28.462 40.4826 28.5667C40.7076 28.6715 40.9074 28.8015 41.0833 28.9592C41.258 29.1157 41.3466 29.312 41.3466 29.548C41.3466 30.4112 39.9321 30.8434 37.103 30.8434C35.9506 30.8434 35.0865 30.6989 34.5109 30.41C33.9604 30.1235 33.6098 29.6395 33.4602 28.9592C32.5076 30.3197 30.9183 30.9999 28.69 30.9999C26.5874 30.9999 24.8725 30.4895 23.5441 29.4685C22.2433 28.4488 21.5935 26.9703 21.5935 25.0332C21.5935 23.149 22.2433 21.6838 23.5441 20.6363C24.8474 19.5648 26.4498 19.0278 28.3526 19.0278C29.8293 19.0278 31.0931 19.3541 32.1462 20.0091V19.8911C31.8949 17.3002 31.6077 15.5472 31.281 14.6298C30.9818 13.7148 30.3798 13.2573 29.4787 13.2573C28.9031 13.2573 28.4399 13.5318 28.0893 14.0808C27.7354 14.6383 27.4693 15.2474 27.3006 15.8867C27.1453 16.5515 26.8366 17.1702 26.3995 17.6927C25.9483 18.2429 25.3476 18.5174 24.5972 18.5174C23.8206 18.5174 23.1827 18.2814 22.6825 17.8107C22.2062 17.3399 21.968 16.7247 21.968 15.9662C21.968 14.448 22.6945 13.3091 24.1461 12.5506C25.5977 11.7656 27.376 11.3731 29.4787 11.3731C31.9822 11.3731 34.0478 12.0919 35.6753 13.5318C37.3268 14.9453 38.3045 16.868 38.6049 19.3023L39.4306 26.3286ZM30.7556 28.9978C31.3312 28.9978 31.7943 28.71 32.145 28.1345C32.5208 27.559 32.7074 26.9041 32.7074 26.1721L32.5579 24.3662C32.3077 22.1942 31.5323 21.1083 30.2302 21.1083C29.6546 21.1083 29.1915 21.3563 28.8408 21.8547C28.4902 22.3243 28.3143 22.966 28.3143 23.7774C28.3143 25.2426 28.5273 26.4863 28.9533 27.5061C29.4033 28.5005 30.0052 28.999 30.7556 28.999V28.9978ZM42.9909 30.6074C42.4141 30.6074 42.1269 30.3594 42.1269 29.861V29.7045C42.1269 29.3914 42.3638 28.9195 42.8401 28.291C43.3403 27.6373 43.5905 26.9823 43.5905 26.3286V8.38975C43.5905 7.70952 43.3403 7.05457 42.8401 6.42731C42.3638 5.77236 42.1269 5.31486 42.1269 5.0524V4.89589C42.1269 4.60694 42.4021 4.30595 42.9526 3.99292L48.6227 1.08779C49.1492 0.853022 49.5621 0.839779 49.8625 1.04927C50.188 1.23227 50.3508 1.52001 50.3508 1.9125V26.3286C50.3508 26.9823 50.626 27.6373 51.1765 28.291C51.727 28.9195 52.0022 29.3902 52.0022 29.7045V29.861C52.0022 30.3594 51.7031 30.6074 51.1023 30.6074H42.9909ZM73.5864 27.3098C73.712 27.4928 74.0878 27.8335 74.7137 28.3308C75.3647 28.828 75.6902 29.2855 75.6902 29.7045V29.861C75.6902 30.3594 75.403 30.6074 74.8262 30.6074H66.9398C66.3641 30.6074 66.0757 30.3462 66.0757 29.8225V29.7045C66.0757 29.3914 66.2636 29.011 66.6394 28.5655C67.0151 28.096 67.0905 27.6758 66.8644 27.3098L63.5602 22.1677L61.6813 23.9737V26.3286C61.6813 26.9823 61.9566 27.6373 62.5083 28.291C63.0839 28.9195 63.3723 29.3902 63.3723 29.7045V29.861C63.3723 30.3594 63.0719 30.6074 62.4712 30.6074H54.3586C53.7578 30.6074 53.4575 30.3594 53.4575 29.861V29.7045C53.4575 29.3914 53.7088 28.9195 54.209 28.291C54.7092 27.6373 54.9605 26.9823 54.9605 26.3286V8.38975C54.9605 7.70952 54.659 7.05457 54.0582 6.42731C53.4575 5.77236 53.1571 5.31486 53.1571 5.0524V4.89589C53.1571 4.60694 53.4323 4.30595 53.9828 3.99292L59.994 1.08779C60.5193 0.878305 60.9322 0.866266 61.2326 1.04927C61.533 1.23227 61.6837 1.52001 61.6837 1.9125V20.5581L66.7531 16.0047C67.0534 15.7952 67.1659 15.534 67.0917 15.2198C67.0459 14.9148 66.9157 14.629 66.716 14.3951C66.5204 14.1041 66.3201 13.8163 66.1152 13.5318C65.9142 13.2188 65.8148 12.9419 65.8148 12.7071V12.5506C65.8148 12.0269 66.102 11.7656 66.6777 11.7656H72.6122C73.1867 11.7656 73.4751 12.0136 73.4751 12.5121V12.6686C73.4751 12.9816 73.3003 13.3091 72.9497 13.6498C72.5991 13.9628 72.0988 14.3433 71.4478 14.7875C70.9132 15.1345 70.4105 15.529 69.9459 15.9662L67.5417 18.2814L73.5864 27.3098ZM81.1592 9.44922C79.8823 9.44922 78.8436 9.08322 78.0418 8.35002C77.24 7.59153 76.8402 6.64884 76.8402 5.52435C76.8402 4.39865 77.2412 3.46921 78.0418 2.7372C78.8436 1.97872 79.8823 1.59827 81.1592 1.59827C82.411 1.59827 83.4378 1.97751 84.2384 2.7372C85.0402 3.46921 85.4399 4.39865 85.4399 5.52435C85.4399 6.64884 85.0402 7.59153 84.2384 8.35002C83.4366 9.08322 82.411 9.44922 81.1592 9.44922ZM77.1406 30.6074C76.5399 30.6074 76.2395 30.3594 76.2395 29.861V29.7045C76.2395 29.3914 76.4908 28.9063 76.991 28.2525C77.4913 27.5988 77.7414 26.9438 77.7414 26.2901V18.8316C77.7414 18.1514 77.4913 17.4964 76.991 16.8692C76.4896 16.2142 76.2395 15.7688 76.2395 15.5328V15.3763C76.2395 15.0632 76.5267 14.7623 77.1035 14.4733L82.7736 11.5694C83.3002 11.3334 83.713 11.3069 84.0134 11.4911C84.3138 11.6741 84.4646 11.9751 84.4646 12.3941V26.2901C84.4646 26.9438 84.7398 27.5976 85.2903 28.2525C85.866 28.9063 86.1544 29.3902 86.1544 29.7045V29.861C86.1544 30.3582 85.8408 30.6074 85.2149 30.6074H77.1406ZM95.563 30.9999C93.6602 30.9999 92.1595 30.3715 91.0573 29.1157C89.9803 27.86 89.4418 26.0673 89.4418 23.7377V14.4348H88.0153C87.7806 14.4403 87.5526 14.3559 87.3774 14.1988C87.2252 14.0108 87.145 13.7742 87.1512 13.5318V12.6686C87.1512 12.0666 87.4396 11.7656 88.0153 11.7656H88.7285C89.881 11.7656 90.8706 11.4117 91.6964 10.7061C92.5221 9.97174 93.0607 9.00497 93.3108 7.80102C93.4364 7.12078 93.7739 6.78007 94.3244 6.78007H95.1884C95.8646 6.78007 96.202 7.12078 96.202 7.80102V11.7656H100.071C100.321 11.7656 100.521 11.8571 100.672 12.0401C100.847 12.1966 100.935 12.4061 100.935 12.6686V13.5318C100.937 13.655 100.915 13.7775 100.87 13.892C100.825 14.0065 100.758 14.1108 100.672 14.1988C100.594 14.2781 100.5 14.3401 100.396 14.3808C100.293 14.4214 100.182 14.4398 100.071 14.4348H96.202V23.8557C96.202 24.5094 96.3648 25.0332 96.6903 25.4256C97.0158 25.7928 97.4167 25.9758 97.8918 25.9758C98.9689 25.9758 99.7946 25.4919 100.371 24.5227C100.546 24.2879 100.746 24.1567 100.972 24.1302C101.197 24.0784 101.385 24.1181 101.535 24.2482C101.711 24.3794 101.798 24.5612 101.798 24.7984C101.798 26.4466 101.235 27.8986 100.108 29.1555C99.0072 30.3847 97.4921 30.9999 95.563 30.9999Z" fill="#202430"/>
</svg>
